<svg xmlns="http://www.w3.org/2000/svg" version="1.1" xmlns:xlink="http://www.w3.org/1999/xlink" xmlns:svgjs="http://svgjs.dev/svgjs" width="1500" height="1500" viewBox="0 0 1500 1500"><rect width="1500" height="1500" fill="#ffffff"></rect><g transform="matrix(0.6666666666666666,0,0,0.6666666666666666,249.78425655976667,249.78425655976673)"><svg viewBox="0 0 343 343" data-background-color="#fafafa" preserveAspectRatio="xMidYMid meet" height="1500" width="1500" xmlns="http://www.w3.org/2000/svg" xmlns:xlink="http://www.w3.org/1999/xlink"><g id="tight-bounds" transform="matrix(1,0,0,1,0.0740000000000407,0.07400000000001228)"><svg viewBox="0 0 342.85155851775386 342.85155851775386" height="342.85155851775386" width="342.85155851775386"><g><svg></svg></g><g><svg viewBox="0 0 342.85155851775386 342.85155851775386" height="342.85155851775386" width="342.85155851775386"><g><path d="M0 171.426c0-94.676 76.75-171.426 171.426-171.426 94.676 0 171.426 76.75 171.426 171.426 0 94.676-76.75 171.426-171.426 171.426-94.676 0-171.426-76.75-171.426-171.426zM171.426 338.159c92.084 0 166.733-74.649 166.733-166.733 0-92.084-74.649-166.733-166.733-166.733-92.084 0-166.733 74.649-166.733 166.733 0 92.084 74.649 166.733 166.733 166.733z" data-fill-palette-color="tertiary" fill="#000000" stroke="transparent"></path><ellipse rx="164.56874808852186" ry="164.56874808852186" cx="171.42577925887693" cy="171.42577925887693" fill="#000000" stroke="transparent" stroke-width="0" fill-opacity="1" data-fill-palette-color="tertiary"></ellipse></g><g transform="matrix(1,0,0,1,64.84655864529837,86.27711691265378)"><svg viewBox="0 0 213.1584412271571 170.2973246924463" height="170.2973246924463" width="213.1584412271571"><g><svg viewBox="0 0 213.1584412271571 170.2973246924463" height="170.2973246924463" width="213.1584412271571"><g><svg viewBox="0 0 213.1584412271571 170.2973246924463" height="170.2973246924463" width="213.1584412271571"><g transform="matrix(1,0,0,1,0,83.06757744934035)"><svg viewBox="0 0 213.1584412271571 87.22974724310596" height="87.22974724310596" width="213.1584412271571"><g id="textblocktransform"><svg viewBox="0 0 213.1584412271571 87.22974724310596" height="87.22974724310596" width="213.1584412271571" id="textblock"><g><svg viewBox="0 0 213.1584412271571 52.03499165747367" height="52.03499165747367" width="213.1584412271571"><g transform="matrix(1,0,0,1,0,0)"><svg width="213.1584412271571" viewBox="1.46 -38.38 205.31 50.120000000000005" height="52.03499165747367" data-palette-color="#fafafa"><path d="M9.18-2.27L9.18-2.27Q8.13-4.25 7.03-7.29 5.93-10.33 4.93-13.82 3.93-17.31 3.15-20.72 2.37-24.12 1.92-26.9 1.46-29.69 1.46-31.25L1.46-31.25Q1.46-31.88 1.73-32.25L1.73-32.25Q2.29-33.03 3.11-33.87 3.93-34.72 5.05-35.64L5.05-35.64Q5.42-35.94 5.74-35.94L5.74-35.94Q6.05-35.94 6.37-35.64L6.37-35.64Q7.52-34.72 8.33-33.87 9.13-33.03 9.69-32.25L9.69-32.25Q9.96-31.88 9.96-31.18L9.96-31.18 9.96-31.27Q9.96-29.66 10.39-26.92 10.82-24.17 11.51-20.91 12.21-17.65 13.02-14.49 13.84-11.33 14.65-8.86L14.65-8.86 14.79-8.86Q16.11-12.13 17.26-15.97 18.41-19.8 19.41-23.8 20.41-27.81 21.29-31.59L21.29-31.59Q21.56-32.69 22.2-33.12 22.85-33.54 24.24-33.54L24.24-33.54 27.17-33.54Q28.42-33.54 29.03-33.18 29.64-32.81 29.91-31.59L29.91-31.59Q30.54-28.76 31.35-25.61 32.15-22.46 33.02-19.35 33.89-16.24 34.78-13.53 35.67-10.82 36.47-8.86L36.47-8.86 36.62-8.86Q37.65-11.18 38.46-14.33 39.28-17.48 39.86-20.76 40.43-24.05 40.73-26.86 41.04-29.66 41.04-31.27L41.04-31.27 41.04-31.18Q41.04-31.88 41.28-32.25L41.28-32.25Q42.46-33.86 44.51-35.64L44.51-35.64Q44.9-35.94 45.19-35.94L45.19-35.94Q45.46-35.94 45.83-35.64L45.83-35.64Q46.92-34.72 47.71-33.87 48.49-33.03 49.05-32.25L49.05-32.25Q49.29-31.86 49.29-31.2L49.29-31.2Q49.29-29.15 48.83-26.27 48.36-23.39 47.57-20.13 46.78-16.87 45.79-13.62 44.8-10.38 43.71-7.56 42.63-4.74 41.58-2.78L41.58-2.78Q40.7-1.15 40-0.57 39.31 0 38.01 0L38.01 0 35.01 0Q33.91 0 33.17-0.49 32.42-0.98 31.62-2.32L31.62-2.32Q31.01-3.34 30.21-5.2 29.42-7.06 28.63-9.24 27.83-11.43 27.2-13.48 26.56-15.53 26.27-16.94L26.27-16.94Q25.93-18.55 25.7-20.06 25.46-21.56 25.42-22.41L25.42-22.41 25.22-22.41Q25.17-21.56 24.91-20.06 24.66-18.55 24.29-16.94L24.29-16.94Q23.93-15.33 23.32-13.26 22.71-11.18 21.97-9.08 21.24-6.98 20.51-5.2 19.78-3.42 19.14-2.37L19.14-2.37Q18.43-1.17 17.59-0.59 16.75 0 15.26 0L15.26 0 12.5 0Q11.21 0 10.55-0.46 9.89-0.93 9.18-2.27ZM49.29-31.27L49.29-31.27 49.29-31.18 49.29-31.2Q49.29-31.25 49.29-31.27ZM1.46-31.18L1.46-31.27 1.46-31.25 1.46-31.18ZM66.31 0.61L66.31 0.61Q62.18 0.61 59.13-0.72 56.08-2.05 54.39-4.86 52.71-7.67 52.71-12.11L52.71-12.11Q52.71-18.77 56.13-22.19 59.54-25.61 65.21-25.61L65.21-25.61Q68.89-25.61 71.45-24.29 74-22.97 75.33-20.65 76.66-18.33 76.66-15.36L76.66-15.36Q76.66-12.45 75.17-11.3 73.68-10.16 70.82-10.16L70.82-10.16 60.35-10.16Q60.54-7.64 62.19-6.32 63.84-5 66.67-5L66.67-5Q68.92-5 70.27-5.68 71.63-6.35 72.17-6.74L72.17-6.74Q72.63-7.08 73.22-7.06L73.22-7.06Q73.68-7.06 74.55-6.87 75.41-6.69 76.27-6.2L76.27-6.2Q76.88-5.88 76.88-5.32L76.88-5.32Q76.88-5 76.76-4.42L76.76-4.42Q76.68-4.08 76.51-3.43 76.34-2.78 76.07-2.22L76.07-2.22Q75.93-1.95 75.61-1.71L75.61-1.71Q75.12-1.37 74.03-0.81 72.95-0.24 71.07 0.18 69.19 0.61 66.31 0.61ZM60.3-15.16L60.3-15.16 68.26-15.16Q69.5-15.16 69.5-16.31L69.5-16.31Q69.5-18.04 68.42-19.23 67.33-20.41 65.16-20.41L65.16-20.41Q62.79-20.41 61.68-18.9 60.57-17.38 60.3-15.16ZM93.5 0.61L93.5 0.61Q90.35 0.61 88.2 0.15 86.05-0.32 84.59-1 83.12-1.68 82.03-2.37L82.03-2.37 82.03-34.33Q82.03-34.91 82.27-35.23L82.27-35.23Q83.3-36.57 85.27-38.13L85.27-38.13Q85.62-38.38 85.88-38.38L85.88-38.38Q86.2-38.38 86.49-38.13L86.49-38.13Q87.54-37.33 88.26-36.62 88.98-35.91 89.5-35.23L89.5-35.23Q89.74-34.91 89.74-34.33L89.74-34.33 89.74-22.49 89.84-22.49Q90.82-23.73 92.55-24.67 94.28-25.61 97.38-25.61L97.38-25.61Q100.85-25.61 103.1-24.01 105.34-22.41 106.44-19.62 107.54-16.82 107.54-13.21L107.54-13.21Q107.54-9.3 106.25-6.16 104.95-3.03 101.89-1.21 98.82 0.61 93.5 0.61ZM93.82-5.3L93.82-5.3Q96.65-5.3 98.14-7.19 99.63-9.08 99.63-12.6L99.63-12.6Q99.63-16.16 98.3-17.77 96.97-19.38 94.45-19.38L94.45-19.38Q92.43-19.38 91.36-18.55 90.3-17.72 89.74-16.46L89.74-16.46 89.74-6.37Q90.28-5.98 91.27-5.64 92.26-5.3 93.82-5.3ZM121.09-1.83L115.98 0.51Q115.47 0.73 115.25 0.73L115.25 0.73Q115.03 0.73 114.79 0.56L114.79 0.56Q114.23 0.17 113.51-1.35 112.79-2.88 112.79-6.05L112.79-6.05 112.79-34.33Q112.79-34.91 113.03-35.23L113.03-35.23Q114.06-36.57 116.03-38.13L116.03-38.13Q116.37-38.38 116.64-38.38L116.64-38.38Q116.96-38.38 117.25-38.13L117.25-38.13Q118.3-37.33 119.02-36.62 119.74-35.91 120.26-35.23L120.26-35.23Q120.5-34.91 120.5-34.33L120.5-34.33 120.5-7.54Q120.5-5.93 120.77-4.8 121.04-3.66 121.4-2.98L121.4-2.98Q121.82-2.17 121.09-1.83L121.09-1.83ZM139.17 0.61L139.17 0.61Q133.02 0.61 129.43-2.66 125.84-5.93 125.84-12.4L125.84-12.4Q125.84-19.04 129.57-22.33 133.29-25.61 139.52-25.61L139.52-25.61Q145.52-25.61 149.14-22.38 152.75-19.14 152.75-12.84L152.75-12.84Q152.75-6.27 149.14-2.83 145.52 0.61 139.17 0.61ZM139.42-5.3L139.42-5.3Q142.1-5.3 143.47-6.97 144.84-8.64 144.84-12.7L144.84-12.7Q144.84-16.55 143.46-18.13 142.08-19.7 139.37-19.7L139.37-19.7Q136.76-19.7 135.26-18.01 133.75-16.31 133.75-12.5L133.75-12.5Q133.75-8.52 135.18-6.91 136.61-5.3 139.42-5.3ZM182.17-22.66L182.17-22.66 182.17-2.86Q182.17 4.27 178.1 8.01 174.04 11.74 166.96 11.74L166.96 11.74Q164.03 11.74 162.32 11.32 160.61 10.89 159.73 10.5L159.73 10.5Q159.17 10.23 159 9.94L159 9.94Q158.75 9.55 158.45 8.79 158.14 8.03 157.87 7.13L157.87 7.13Q157.8 6.79 157.85 6.62L157.85 6.62Q157.95 6.37 158.22 6.1L158.22 6.1Q158.65 5.66 159.47 5.08 160.29 4.49 160.73 4.32L160.73 4.32Q161.19 4.15 161.58 4.37L161.58 4.37Q162.22 4.71 163.4 5.14 164.59 5.57 166.74 5.57L166.74 5.57Q170.15 5.57 172.3 3.81 174.45 2.05 174.45-1.61L174.45-1.61 174.45-2.49 174.35-2.49Q173.82-1.81 172.96-1.1 172.11-0.39 170.75 0.1 169.4 0.59 167.27 0.59L167.27 0.59Q163.59 0.59 161.23-1.01 158.87-2.61 157.76-5.42 156.65-8.23 156.65-11.82L156.65-11.82Q156.65-15.75 157.95-18.87 159.24-22 162.29-23.82 165.34-25.63 170.64-25.63L170.64-25.63Q173.82-25.63 175.98-25.17 178.14-24.71 179.6-24.02 181.07-23.34 182.17-22.66ZM170.37-19.73L170.37-19.73Q167.54-19.73 166.05-17.82 164.56-15.92 164.56-11.91L164.56-11.91Q164.56-5.64 169.74-5.64L169.74-5.64Q171.76-5.64 172.84-6.47 173.91-7.3 174.45-8.57L174.45-8.57 174.45-18.65Q173.91-19.04 172.94-19.38 171.96-19.73 170.37-19.73ZM195.71 0.61L195.71 0.61Q193.1 0.61 191.38 0.17 189.66-0.27 188.62-0.89 187.58-1.51 187-2.03L187-2.03Q186.56-2.44 186.9-2.95L186.9-2.95 189.39-6.64Q189.93-7.42 190.61-6.74L190.61-6.74Q191.32-6.05 192.53-5.41 193.74-4.76 195.54-4.76L195.54-4.76Q197.15-4.76 198.19-5.31 199.23-5.86 199.23-6.91L199.23-6.91Q199.23-7.64 198.76-8.11 198.3-8.57 197.13-9.06 195.96-9.55 193.86-10.3L193.86-10.3Q190.76-11.43 189.17-13.01 187.58-14.6 187.58-17.65L187.58-17.65Q187.58-20.46 189.13-22.22 190.68-23.97 193.11-24.79 195.54-25.61 198.18-25.61L198.18-25.61Q201.52-25.61 202.88-24.99 204.23-24.37 204.62-24.02L204.62-24.02Q204.99-23.71 205.14-23.29L205.14-23.29Q205.45-22.34 205.62-20.78L205.62-20.78Q205.72-19.87 205.16-19.58L205.16-19.58Q204.87-19.41 204.23-19.21 203.6-19.02 202.96-18.87 202.33-18.73 202.01-18.73L202.01-18.73Q201.91-18.73 201.8-18.79 201.69-18.85 201.43-19.09L201.43-19.09Q201.11-19.41 200.34-19.82 199.57-20.24 198.23-20.24L198.23-20.24Q196.91-20.24 196.02-19.81 195.13-19.38 195.13-18.31L195.13-18.31Q195.13-17.14 196.26-16.55 197.4-15.97 200.01-15.04L200.01-15.04Q202.06-14.33 203.59-13.49 205.11-12.65 205.94-11.29 206.77-9.94 206.77-7.64L206.77-7.64Q206.77-4.66 205.15-2.84 203.53-1.03 201-0.21 198.47 0.61 195.71 0.61Z" opacity="1" transform="matrix(1,0,0,1,0,0)" fill="#ffffff" class="wordmark-text-0" data-fill-palette-color="quaternary" id="text-0"></path></svg></g></svg></g><g transform="matrix(1,0,0,1,0,64.31920434800342)"><svg viewBox="0 0 213.1584412271571 22.910542895102537" height="22.910542895102537" width="213.1584412271571"><g transform="matrix(1,0,0,1,0,0)"><svg width="213.1584412271571" viewBox="3.91 -38.38 466.28 50.120000000000005" height="22.910542895102537" data-palette-color="#fafafa"><path d="M22.07 0L9.94 0Q7.42 0 6.12-0.63 4.81-1.27 4.36-2.71 3.91-4.15 3.91-6.54L3.91-6.54 3.91-31.1Q3.91-31.81 4.15-32.18L4.15-32.18Q5.25-33.79 7.23-35.57L7.23-35.57Q7.59-35.86 7.86-35.86L7.86-35.86Q8.15-35.86 8.47-35.57L8.47-35.57Q9.55-34.64 10.28-33.8 11.01-32.96 11.55-32.18L11.55-32.18Q11.79-31.79 11.79-31.1L11.79-31.1 11.79-9.45Q11.79-7.81 12.38-7.1 12.96-6.4 14.58-6.4L14.58-6.4 22.07-6.42Q22.66-6.42 22.95-6.23L22.95-6.23Q23.58-5.79 24.27-5.18 24.95-4.57 25.71-3.71L25.71-3.71Q25.95-3.39 25.95-3.2L25.95-3.2Q25.95-2.98 25.71-2.71L25.71-2.71Q24.95-1.86 24.27-1.25 23.58-0.63 22.95-0.2L22.95-0.2Q22.61 0 22.07 0L22.07 0ZM41.01 0.61L41.01 0.61Q36.89 0.61 33.84-0.72 30.78-2.05 29.1-4.86 27.41-7.67 27.41-12.11L27.41-12.11Q27.41-18.77 30.83-22.19 34.25-25.61 39.91-25.61L39.91-25.61Q43.6-25.61 46.15-24.29 48.7-22.97 50.03-20.65 51.36-18.33 51.36-15.36L51.36-15.36Q51.36-12.45 49.88-11.3 48.39-10.16 45.53-10.16L45.53-10.16 35.06-10.16Q35.25-7.64 36.9-6.32 38.55-5 41.38-5L41.38-5Q43.63-5 44.98-5.68 46.34-6.35 46.87-6.74L46.87-6.74Q47.34-7.08 47.92-7.06L47.92-7.06Q48.39-7.06 49.25-6.87 50.12-6.69 50.97-6.2L50.97-6.2Q51.58-5.88 51.58-5.32L51.58-5.32Q51.58-5 51.46-4.42L51.46-4.42Q51.39-4.08 51.22-3.43 51.05-2.78 50.78-2.22L50.78-2.22Q50.63-1.95 50.31-1.71L50.31-1.71Q49.83-1.37 48.74-0.81 47.65-0.24 45.77 0.18 43.89 0.61 41.01 0.61ZM35.01-15.16L35.01-15.16 42.97-15.16Q44.21-15.16 44.21-16.31L44.21-16.31Q44.21-18.04 43.12-19.23 42.04-20.41 39.87-20.41L39.87-20.41Q37.5-20.41 36.39-18.9 35.28-17.38 35.01-15.16ZM66.62 0.61L66.62 0.61Q58.47 0.61 58.47-7.86L58.47-7.86 58.47-19.31 55.71-19.31Q54.98-19.31 54.69-19.62 54.41-19.92 54.41-20.65L54.41-20.65 54.41-23.66Q54.41-24.39 54.69-24.69 54.98-25 55.71-25L55.71-25 58.47-25 58.47-28.93Q58.47-29.52 58.71-29.83L58.71-29.83Q59.74-31.18 61.71-32.74L61.71-32.74Q62.06-32.98 62.32-32.98L62.32-32.98Q62.62-32.98 62.91-32.74L62.91-32.74Q63.96-31.93 64.68-31.23 65.4-30.52 65.91-29.83L65.91-29.83Q66.16-29.52 66.16-28.93L66.16-28.93 66.16-25 70.48-25Q71.21-25 71.49-24.69 71.77-24.39 71.77-23.66L71.77-23.66 71.77-20.65Q71.77-19.92 71.49-19.62 71.21-19.31 70.48-19.31L70.48-19.31 66.16-19.31 66.16-9.2Q66.16-5.3 68.99-5.3L68.99-5.3Q69.43-5.3 69.79-5.38 70.16-5.47 70.43-5.57L70.43-5.57Q70.94-5.76 71.15-5.71 71.36-5.66 71.53-5.18L71.53-5.18 72.94-1.39Q73.16-0.78 72.65-0.51L72.65-0.51Q72.29-0.34 70.88 0.13 69.48 0.61 66.62 0.61ZM84.05-20.97L79.97-20.97Q79.07-20.97 79-21.85L79-21.85 77.97-34.35Q77.95-34.81 78.24-35.13 78.53-35.45 79-35.45L79-35.45 85.05-35.45Q85.54-35.45 85.83-35.12 86.13-34.79 86.08-34.33L86.08-34.33 85-21.85Q84.93-20.97 84.05-20.97L84.05-20.97ZM100.58 0.61L100.58 0.61Q97.96 0.61 96.24 0.17 94.52-0.27 93.48-0.89 92.45-1.51 91.86-2.03L91.86-2.03Q91.42-2.44 91.76-2.95L91.76-2.95 94.25-6.64Q94.79-7.42 95.47-6.74L95.47-6.74Q96.18-6.05 97.39-5.41 98.6-4.76 100.41-4.76L100.41-4.76Q102.02-4.76 103.05-5.31 104.09-5.86 104.09-6.91L104.09-6.91Q104.09-7.64 103.63-8.11 103.16-8.57 101.99-9.06 100.82-9.55 98.72-10.3L98.72-10.3Q95.62-11.43 94.03-13.01 92.45-14.6 92.45-17.65L92.45-17.65Q92.45-20.46 94-22.22 95.55-23.97 97.98-24.79 100.41-25.61 103.04-25.61L103.04-25.61Q106.39-25.61 107.74-24.99 109.1-24.37 109.49-24.02L109.49-24.02Q109.85-23.71 110-23.29L110-23.29Q110.32-22.34 110.49-20.78L110.49-20.78Q110.59-19.87 110.02-19.58L110.02-19.58Q109.73-19.41 109.1-19.21 108.46-19.02 107.83-18.87 107.19-18.73 106.87-18.73L106.87-18.73Q106.78-18.73 106.67-18.79 106.56-18.85 106.29-19.09L106.29-19.09Q105.97-19.41 105.2-19.82 104.43-20.24 103.09-20.24L103.09-20.24Q101.77-20.24 100.88-19.81 99.99-19.38 99.99-18.31L99.99-18.31Q99.99-17.14 101.13-16.55 102.26-15.97 104.87-15.04L104.87-15.04Q106.92-14.33 108.45-13.49 109.98-12.65 110.81-11.29 111.64-9.94 111.64-7.64L111.64-7.64Q111.64-4.66 110.01-2.84 108.39-1.03 105.86-0.21 103.33 0.61 100.58 0.61ZM141.66 0.61L141.66 0.61Q138.51 0.61 136.36 0.15 134.21-0.32 132.75-1 131.28-1.68 130.19-2.37L130.19-2.37 130.19-34.33Q130.19-34.91 130.43-35.23L130.43-35.23Q131.45-36.57 133.43-38.13L133.43-38.13Q133.77-38.38 134.04-38.38L134.04-38.38Q134.36-38.38 134.65-38.13L134.65-38.13Q135.7-37.33 136.42-36.62 137.14-35.91 137.66-35.23L137.66-35.23Q137.9-34.91 137.9-34.33L137.9-34.33 137.9-22.49 138-22.49Q138.97-23.73 140.71-24.67 142.44-25.61 145.54-25.61L145.54-25.61Q149.01-25.61 151.25-24.01 153.5-22.41 154.6-19.62 155.7-16.82 155.7-13.21L155.7-13.21Q155.7-9.3 154.4-6.16 153.11-3.03 150.05-1.21 146.98 0.61 141.66 0.61ZM141.98-5.3L141.98-5.3Q144.81-5.3 146.3-7.19 147.79-9.08 147.79-12.6L147.79-12.6Q147.79-16.16 146.46-17.77 145.13-19.38 142.61-19.38L142.61-19.38Q140.59-19.38 139.52-18.55 138.46-17.72 137.9-16.46L137.9-16.46 137.9-6.37Q138.44-5.98 139.43-5.64 140.41-5.3 141.98-5.3ZM169.66 0.61L169.66 0.61Q160.97 0.61 160.97-9.91L160.97-9.91 160.94-22.31Q160.94-22.9 161.19-23.22L161.19-23.22Q162.21-24.56 164.19-26.12L164.19-26.12Q164.53-26.37 164.8-26.37L164.8-26.37Q165.12-26.37 165.41-26.12L165.41-26.12Q166.46-25.32 167.18-24.61 167.9-23.9 168.42-23.22L168.42-23.22Q168.66-22.9 168.66-22.31L168.66-22.31 168.66-10.6Q168.66-5.3 172.86-5.3L172.86-5.3Q174.93-5.3 176.18-6.75 177.42-8.2 177.42-10.69L177.42-10.69 177.42-22.31Q177.42-22.9 177.67-23.22L177.67-23.22Q178.69-24.56 180.67-26.12L180.67-26.12Q181.01-26.37 181.28-26.37L181.28-26.37Q181.6-26.37 181.89-26.12L181.89-26.12Q182.94-25.32 183.66-24.61 184.38-23.9 184.89-23.22L184.89-23.22Q185.14-22.9 185.14-22.31L185.14-22.31 185.14-1.12Q185.14-0.66 184.82-0.33 184.5 0 184.02 0L184.02 0 180.35 0Q179.96 0 179.66-0.11 179.35-0.22 179.08-0.54L179.08-0.54 177.57-2.49 177.4-2.49Q177.01-1.93 176.19-1.2 175.37-0.46 173.82 0.07 172.27 0.61 169.66 0.61ZM190.61-33.2L190.61-33.2Q190.61-33.52 190.8-33.76 191-34.01 191.31-34.4L191.31-34.4Q192-35.18 192.9-36.05 193.8-36.91 194.73-37.72L194.73-37.72Q195.32-38.18 195.61-38.18L195.61-38.18Q195.9-38.18 196.51-37.72L196.51-37.72Q198.49-36.01 199.88-34.4L199.88-34.4Q200.2-34.03 200.41-33.78 200.61-33.52 200.61-33.2L200.61-33.2Q200.61-32.89 200.41-32.64 200.2-32.4 199.86-31.98L199.86-31.98Q199.2-31.23 198.32-30.36 197.44-29.49 196.51-28.71L196.51-28.71Q196.17-28.42 195.98-28.33 195.78-28.25 195.61-28.25L195.61-28.25Q195.44-28.25 195.26-28.33 195.07-28.42 194.68-28.71L194.68-28.71Q193.71-29.49 192.85-30.36 192-31.23 191.31-32.03L191.31-32.03Q191-32.42 190.8-32.65 190.61-32.89 190.61-33.2ZM199.44-23.71L199.44-1.29Q199.44-0.56 199.14-0.28 198.83 0 198.1 0L198.1 0 193.07 0Q192.34 0 192.03-0.28 191.73-0.56 191.73-1.29L191.73-1.29 191.73-23.71Q191.73-24.44 192.03-24.72 192.34-25 193.07-25L193.07-25 198.1-25Q198.83-25 199.14-24.72 199.44-24.44 199.44-23.71L199.44-23.71ZM214.38-1.83L209.28 0.51Q208.77 0.73 208.55 0.73L208.55 0.73Q208.33 0.73 208.08 0.56L208.08 0.56Q207.52 0.17 206.8-1.35 206.08-2.88 206.08-6.05L206.08-6.05 206.08-34.33Q206.08-34.91 206.33-35.23L206.33-35.23Q207.35-36.57 209.33-38.13L209.33-38.13Q209.67-38.38 209.94-38.38L209.94-38.38Q210.26-38.38 210.55-38.13L210.55-38.13Q211.6-37.33 212.32-36.62 213.04-35.91 213.55-35.23L213.55-35.23Q213.8-34.91 213.8-34.33L213.8-34.33 213.8-7.54Q213.8-5.93 214.06-4.8 214.33-3.66 214.7-2.98L214.7-2.98Q215.11-2.17 214.38-1.83L214.38-1.83ZM229.32 0.61L229.32 0.61Q226.07 0.61 223.79-0.99 221.51-2.59 220.32-5.41 219.14-8.23 219.14-11.91L219.14-11.91Q219.14-16.77 220.86-19.79 222.58-22.8 225.72-24.22 228.86-25.63 233.13-25.63L233.13-25.63Q234.59-25.63 235.56-25.49 236.52-25.34 236.94-25.22L236.94-25.22 236.94-34.33Q236.94-34.91 237.18-35.23L237.18-35.23Q238.21-36.57 240.18-38.13L240.18-38.13Q240.53-38.38 240.8-38.38L240.8-38.38Q241.11-38.38 241.41-38.13L241.41-38.13Q242.46-37.33 243.18-36.62 243.9-35.91 244.41-35.23L244.41-35.23Q244.65-34.91 244.65-34.33L244.65-34.33 244.65-1.12Q244.65-0.66 244.34-0.33 244.02 0 243.53 0L243.53 0 239.89 0Q239.5 0 239.2-0.11 238.89-0.22 238.62-0.54L238.62-0.54 237.11-2.49 236.94-2.49Q236.62-2 235.8-1.26 234.98-0.51 233.43 0.05 231.88 0.61 229.32 0.61ZM231.69-5.64L231.69-5.64Q233.89-5.64 235.14-6.47 236.4-7.3 236.94-8.57L236.94-8.57 236.94-18.8Q236.55-19.04 235.64-19.38 234.74-19.73 233.1-19.73L233.1-19.73Q230.08-19.73 228.56-17.75 227.05-15.77 227.05-12.43L227.05-12.43Q227.05-8.96 228.32-7.3 229.59-5.64 231.69-5.64ZM274.92 0.61L274.92 0.61Q266.77 0.61 266.77-7.86L266.77-7.86 266.77-19.31 264.01-19.31Q263.28-19.31 262.99-19.62 262.71-19.92 262.71-20.65L262.71-20.65 262.71-23.66Q262.71-24.39 262.99-24.69 263.28-25 264.01-25L264.01-25 266.77-25 266.77-28.93Q266.77-29.52 267.01-29.83L267.01-29.83Q268.04-31.18 270.01-32.74L270.01-32.74Q270.36-32.98 270.62-32.98L270.62-32.98Q270.92-32.98 271.21-32.74L271.21-32.74Q272.26-31.93 272.98-31.23 273.7-30.52 274.21-29.83L274.21-29.83Q274.46-29.52 274.46-28.93L274.46-28.93 274.46-25 278.78-25Q279.51-25 279.79-24.69 280.07-24.39 280.07-23.66L280.07-23.66 280.07-20.65Q280.07-19.92 279.79-19.62 279.51-19.31 278.78-19.31L278.78-19.31 274.46-19.31 274.46-9.2Q274.46-5.3 277.29-5.3L277.29-5.3Q277.73-5.3 278.1-5.38 278.46-5.47 278.73-5.57L278.73-5.57Q279.24-5.76 279.45-5.71 279.66-5.66 279.83-5.18L279.83-5.18 281.24-1.39Q281.46-0.78 280.95-0.51L280.95-0.51Q280.59-0.34 279.18 0.13 277.78 0.61 274.92 0.61ZM297.31 0.61L297.31 0.61Q291.15 0.61 287.57-2.66 283.98-5.93 283.98-12.4L283.98-12.4Q283.98-19.04 287.7-22.33 291.42-25.61 297.65-25.61L297.65-25.61Q303.65-25.61 307.27-22.38 310.88-19.14 310.88-12.84L310.88-12.84Q310.88-6.27 307.27-2.83 303.65 0.61 297.31 0.61ZM297.55-5.3L297.55-5.3Q300.24-5.3 301.6-6.97 302.97-8.64 302.97-12.7L302.97-12.7Q302.97-16.55 301.59-18.13 300.21-19.7 297.5-19.7L297.5-19.7Q294.89-19.7 293.39-18.01 291.89-16.31 291.89-12.5L291.89-12.5Q291.89-8.52 293.31-6.91 294.74-5.3 297.55-5.3ZM340.3-22.66L340.3-22.66 340.3-2.86Q340.3 4.27 336.23 8.01 332.17 11.74 325.09 11.74L325.09 11.74Q322.16 11.74 320.45 11.32 318.74 10.89 317.86 10.5L317.86 10.5Q317.3 10.23 317.13 9.94L317.13 9.94Q316.88 9.55 316.58 8.79 316.27 8.03 316.01 7.13L316.01 7.13Q315.93 6.79 315.98 6.62L315.98 6.62Q316.08 6.37 316.35 6.1L316.35 6.1Q316.79 5.66 317.6 5.08 318.42 4.49 318.86 4.32L318.86 4.32Q319.33 4.15 319.72 4.37L319.72 4.37Q320.35 4.71 321.53 5.14 322.72 5.57 324.87 5.57L324.87 5.57Q328.29 5.57 330.43 3.81 332.58 2.05 332.58-1.61L332.58-1.61 332.58-2.49 332.48-2.49Q331.95-1.81 331.09-1.1 330.24-0.39 328.88 0.1 327.53 0.59 325.4 0.59L325.4 0.59Q321.72 0.59 319.36-1.01 317.01-2.61 315.9-5.42 314.78-8.23 314.78-11.82L314.78-11.82Q314.78-15.75 316.08-18.87 317.37-22 320.42-23.82 323.48-25.63 328.77-25.63L328.77-25.63Q331.95-25.63 334.11-25.17 336.27-24.71 337.73-24.02 339.2-23.34 340.3-22.66ZM328.51-19.73L328.51-19.73Q325.67-19.73 324.18-17.82 322.69-15.92 322.69-11.91L322.69-11.91Q322.69-5.64 327.87-5.64L327.87-5.64Q329.9-5.64 330.97-6.47 332.05-7.3 332.58-8.57L332.58-8.57 332.58-18.65Q332.05-19.04 331.07-19.38 330.09-19.73 328.51-19.73ZM359.14 0.61L359.14 0.61Q355.02 0.61 351.96-0.72 348.91-2.05 347.23-4.86 345.54-7.67 345.54-12.11L345.54-12.11Q345.54-18.77 348.96-22.19 352.38-25.61 358.04-25.61L358.04-25.61Q361.73-25.61 364.28-24.29 366.83-22.97 368.16-20.65 369.49-18.33 369.49-15.36L369.49-15.36Q369.49-12.45 368-11.3 366.52-10.16 363.66-10.16L363.66-10.16 353.19-10.16Q353.38-7.64 355.03-6.32 356.68-5 359.51-5L359.51-5Q361.75-5 363.11-5.68 364.46-6.35 365-6.74L365-6.74Q365.47-7.08 366.05-7.06L366.05-7.06Q366.52-7.06 367.38-6.87 368.25-6.69 369.1-6.2L369.1-6.2Q369.71-5.88 369.71-5.32L369.71-5.32Q369.71-5 369.59-4.42L369.59-4.42Q369.52-4.08 369.35-3.43 369.18-2.78 368.91-2.22L368.91-2.22Q368.76-1.95 368.44-1.71L368.44-1.71Q367.96-1.37 366.87-0.81 365.78-0.24 363.9 0.18 362.02 0.61 359.14 0.61ZM353.14-15.16L353.14-15.16 361.1-15.16Q362.34-15.16 362.34-16.31L362.34-16.31Q362.34-18.04 361.25-19.23 360.17-20.41 357.99-20.41L357.99-20.41Q355.63-20.41 354.52-18.9 353.4-17.38 353.14-15.16ZM384.75 0.61L384.75 0.61Q376.6 0.61 376.6-7.86L376.6-7.86 376.6-19.31 373.84-19.31Q373.1-19.31 372.82-19.62 372.54-19.92 372.54-20.65L372.54-20.65 372.54-23.66Q372.54-24.39 372.82-24.69 373.1-25 373.84-25L373.84-25 376.6-25 376.6-28.93Q376.6-29.52 376.84-29.83L376.84-29.83Q377.87-31.18 379.84-32.74L379.84-32.74Q380.18-32.98 380.45-32.98L380.45-32.98Q380.75-32.98 381.04-32.74L381.04-32.74Q382.09-31.93 382.81-31.23 383.53-30.52 384.04-29.83L384.04-29.83Q384.29-29.52 384.29-28.93L384.29-28.93 384.29-25 388.61-25Q389.34-25 389.62-24.69 389.9-24.39 389.9-23.66L389.9-23.66 389.9-20.65Q389.9-19.92 389.62-19.62 389.34-19.31 388.61-19.31L388.61-19.31 384.29-19.31 384.29-9.2Q384.29-5.3 387.12-5.3L387.12-5.3Q387.56-5.3 387.92-5.38 388.29-5.47 388.56-5.57L388.56-5.57Q389.07-5.76 389.28-5.71 389.49-5.66 389.66-5.18L389.66-5.18 391.07-1.39Q391.29-0.78 390.78-0.51L390.78-0.51Q390.41-0.34 389.01 0.13 387.61 0.61 384.75 0.61ZM402.86-16.46L402.86-1.29Q402.86-0.56 402.56-0.28 402.25 0 401.52 0L401.52 0 396.49 0Q395.76 0 395.45-0.28 395.15-0.56 395.15-1.29L395.15-1.29 395.15-34.33Q395.15-34.91 395.39-35.23L395.39-35.23Q396.42-36.57 398.4-38.13L398.4-38.13Q398.74-38.38 399.01-38.38L399.01-38.38Q399.32-38.38 399.62-38.13L399.62-38.13Q400.67-37.33 401.39-36.62 402.11-35.91 402.62-35.23L402.62-35.23Q402.86-34.91 402.86-34.33L402.86-34.33 402.86-22.49 402.96-22.49Q403.5-23.19 404.35-23.91 405.21-24.63 406.63-25.12 408.06-25.61 410.28-25.61L410.28-25.61Q412.53-25.61 414.61-24.68 416.68-23.75 418-21.56 419.32-19.36 419.32-15.55L419.32-15.55 419.32-1.29Q419.32-0.56 419.01-0.28 418.71 0 417.98 0L417.98 0 412.95 0Q412.21 0 411.91-0.28 411.6-0.56 411.6-1.29L411.6-1.29 411.6-14.21Q411.6-16.92 410.48-18.15 409.36-19.38 407.43-19.38L407.43-19.38Q405.52-19.38 404.47-18.55 403.42-17.72 402.86-16.46L402.86-16.46ZM438.16 0.61L438.16 0.61Q434.04 0.61 430.99-0.72 427.93-2.05 426.25-4.86 424.56-7.67 424.56-12.11L424.56-12.11Q424.56-18.77 427.98-22.19 431.4-25.61 437.06-25.61L437.06-25.61Q440.75-25.61 443.3-24.29 445.85-22.97 447.18-20.65 448.51-18.33 448.51-15.36L448.51-15.36Q448.51-12.45 447.03-11.3 445.54-10.16 442.68-10.16L442.68-10.16 432.21-10.16Q432.4-7.64 434.05-6.32 435.7-5 438.53-5L438.53-5Q440.78-5 442.13-5.68 443.49-6.35 444.02-6.74L444.02-6.74Q444.49-7.08 445.07-7.06L445.07-7.06Q445.54-7.06 446.4-6.87 447.27-6.69 448.12-6.2L448.12-6.2Q448.73-5.88 448.73-5.32L448.73-5.32Q448.73-5 448.61-4.42L448.61-4.42Q448.54-4.08 448.37-3.43 448.2-2.78 447.93-2.22L447.93-2.22Q447.78-1.95 447.46-1.71L447.46-1.71Q446.98-1.37 445.89-0.81 444.8-0.24 442.92 0.18 441.04 0.61 438.16 0.61ZM432.16-15.16L432.16-15.16 440.12-15.16Q441.36-15.16 441.36-16.31L441.36-16.31Q441.36-18.04 440.27-19.23 439.19-20.41 437.02-20.41L437.02-20.41Q434.65-20.41 433.54-18.9 432.43-17.38 432.16-15.16ZM461.6-22.17L461.6-20.36 461.7-20.36Q463.53-25.44 468.29-25.44L468.29-25.44Q468.9-25.44 469.29-25.38 469.68-25.32 469.83-25.27L469.83-25.27Q470.19-25.15 470.19-24.71L470.19-24.71 470.19-18.82Q470.19-18.07 469.31-18.41L469.31-18.41Q469.02-18.53 468.47-18.66 467.92-18.8 466.94-18.8L466.94-18.8Q464.43-18.8 463.01-16.96 461.6-15.11 461.6-11.94L461.6-11.94 461.6-1.29Q461.6-0.56 461.29-0.28 460.99 0 460.26 0L460.26 0 455.23 0Q454.49 0 454.19-0.28 453.88-0.56 453.88-1.29L453.88-1.29 453.88-21.75Q453.88-22.34 454.13-22.66L454.13-22.66Q454.64-23.34 455.36-24.05 456.08-24.76 457.13-25.56L457.13-25.56Q457.33-25.71 457.52-25.76 457.72-25.81 457.86-25.81L457.86-25.81Q458.2-25.81 458.55-25.56L458.55-25.56Q460.57-23.97 461.38-22.85L461.38-22.85Q461.6-22.56 461.6-22.17L461.6-22.17Z" opacity="1" transform="matrix(1,0,0,1,0,0)" fill="#ffffff" class="slogan-text-1" data-fill-palette-color="quaternary" id="text-1"></path></svg></g></svg></g></svg></g></svg></g><g transform="matrix(1,0,0,1,40.713262274387006,0)"><svg viewBox="0 0 131.7319166783831 70.78336475881059" height="70.78336475881059" width="131.7319166783831"><g><svg xmlns="http://www.w3.org/2000/svg" xmlns:cc="http://creativecommons.org/ns#" xmlns:dc="http://purl.org/dc/elements/1.1/" xmlns:rdf="http://www.w3.org/1999/02/22-rdf-syntax-ns#" version="1.1" viewBox="0.21120000000000028 3.67859861603767 15.5376 8.34880138396233" x="0" y="0" height="70.78336475881059" width="131.7319166783831" class="icon-icon-0" data-fill-palette-color="quaternary" id="icon-0"><g shape-rendering="auto" fill="#fafafa" data-fill-palette-color="quaternary"><g fill="#fafafa" data-fill-palette-color="quaternary"><path d="M3.834 6.08l-1.811 2.932-1.812 2.932 0.357 0.002 3.237 0.014 3.593 0.016-1.782-2.948z m-0.004 0.778l1.428 2.363 1.429 2.364-2.881-0.013-2.88-0.013 1.452-2.351z" color="#FAFAFA" color-rendering="auto" dominant-baseline="auto" image-rendering="auto" solid-color="#FAFAFA" font-feature-settings="normal" font-variant-alternates="normal" font-variant-caps="normal" font-variant-ligatures="normal" font-variant-numeric="normal" font-variant-position="normal" isolation="auto" mix-blend-mode="normal" paint-order="fill markers stroke" shape-padding="0" text-decoration-color="#fafafa" text-decoration-line="none" text-decoration-style="solid" text-indent="0" text-orientation="mixed" text-transform="none" white-space="normal" fill="#ffffff" data-fill-palette-color="quaternary"></path><path d="M5.999 7.884c1.208-0.126 2.092-1.162 1.956-2.321-0.136-1.159-1.238-1.988-2.445-1.862-1.208 0.126-2.094 1.163-1.958 2.322 0.136 1.159 1.24 1.987 2.447 1.861z m-0.046-0.398c-1.004 0.105-1.894-0.574-2.003-1.505-0.109-0.932 0.602-1.777 1.606-1.882 1.004-0.105 1.892 0.574 2.001 1.506 0.109 0.932-0.6 1.777-1.604 1.881z" color="#FAFAFA" color-rendering="auto" dominant-baseline="auto" image-rendering="auto" solid-color="#FAFAFA" font-feature-settings="normal" font-variant-alternates="normal" font-variant-caps="normal" font-variant-ligatures="normal" font-variant-numeric="normal" font-variant-position="normal" isolation="auto" mix-blend-mode="normal" paint-order="fill markers stroke" shape-padding="0" text-decoration-color="#fafafa" text-decoration-line="none" text-decoration-style="solid" text-indent="0" text-orientation="mixed" text-transform="none" white-space="normal" fill="#ffffff" data-fill-palette-color="quaternary"></path><path d="M12.126 6.069l1.811 2.932 1.812 2.932-0.357 0.002-3.237 0.014-3.593 0.016 1.782-2.948z m0.004 0.778l-1.428 2.363-1.429 2.363 2.881-0.013 2.88-0.012-1.452-2.351z" color="#FAFAFA" color-rendering="auto" dominant-baseline="auto" image-rendering="auto" solid-color="#FAFAFA" font-feature-settings="normal" font-variant-alternates="normal" font-variant-caps="normal" font-variant-ligatures="normal" font-variant-numeric="normal" font-variant-position="normal" isolation="auto" mix-blend-mode="normal" paint-order="fill markers stroke" shape-padding="0" text-decoration-color="#fafafa" text-decoration-line="none" text-decoration-style="solid" text-indent="0" text-orientation="mixed" text-transform="none" white-space="normal" fill="#ffffff" data-fill-palette-color="quaternary"></path><path d="M9.835 7.872c-1.208-0.126-2.094-1.163-1.958-2.321 0.136-1.159 1.239-1.985 2.447-1.86 1.208 0.126 2.092 1.161 1.956 2.319-0.136 1.159-1.238 1.988-2.445 1.862z m0.046-0.398c1.004 0.105 1.892-0.574 2.001-1.505 0.109-0.932-0.6-1.777-1.604-1.882-1.004-0.105-1.894 0.574-2.003 1.505-0.109 0.932 0.602 1.777 1.607 1.882z" color="#FAFAFA" color-rendering="auto" dominant-baseline="auto" image-rendering="auto" solid-color="#FAFAFA" font-feature-settings="normal" font-variant-alternates="normal" font-variant-caps="normal" font-variant-ligatures="normal" font-variant-numeric="normal" font-variant-position="normal" isolation="auto" mix-blend-mode="normal" paint-order="fill markers stroke" shape-padding="0" text-decoration-color="#fafafa" text-decoration-line="none" text-decoration-style="solid" text-indent="0" text-orientation="mixed" text-transform="none" white-space="normal" fill="#ffffff" data-fill-palette-color="quaternary"></path><path d="M6.5 9.232c-0.021 0.507 0.245 0.982 0.689 1.245 0.444 0.262 0.999 0.274 1.454 0.029 0.455-0.244 0.74-0.71 0.74-1.217h-0.401c0 0.357-0.199 0.688-0.529 0.865-0.33 0.178-0.738 0.169-1.06-0.021-0.322-0.19-0.507-0.528-0.493-0.885z" color="#FAFAFA" color-rendering="auto" dominant-baseline="auto" image-rendering="auto" solid-color="#FAFAFA" font-feature-settings="normal" font-variant-alternates="normal" font-variant-caps="normal" font-variant-ligatures="normal" font-variant-numeric="normal" font-variant-position="normal" isolation="auto" mix-blend-mode="normal" paint-order="fill markers stroke" shape-padding="0" text-decoration-color="#fafafa" text-decoration-line="none" text-decoration-style="solid" text-indent="0" text-orientation="mixed" text-transform="none" white-space="normal" fill="#ffffff" data-fill-palette-color="quaternary"></path></g><path d="M7.762 10.504l0.002 1.523h0.4l-0.002-1.523z" color="#FAFAFA" color-rendering="auto" dominant-baseline="auto" fill-rule="evenodd" image-rendering="auto" solid-color="#FAFAFA" font-feature-settings="normal" font-variant-alternates="normal" font-variant-caps="normal" font-variant-ligatures="normal" font-variant-numeric="normal" font-variant-position="normal" isolation="auto" mix-blend-mode="normal" shape-padding="0" text-decoration-color="#fafafa" text-decoration-line="none" text-decoration-style="solid" text-indent="0" text-orientation="mixed" text-transform="none" white-space="normal" fill="#ffffff" data-fill-palette-color="quaternary"></path><path d="M11.633 4.399c0.64-0.382 1.478-0.267 1.994 0.271 0.516 0.538 0.56 1.34 0.102 1.911l0.326 0.242c0.575-0.716 0.523-1.735-0.128-2.413s-1.714-0.822-2.516-0.344z" color="#FAFAFA" color-rendering="auto" dominant-baseline="auto" image-rendering="auto" solid-color="#FAFAFA" font-feature-settings="normal" font-variant-alternates="normal" font-variant-caps="normal" font-variant-ligatures="normal" font-variant-numeric="normal" font-variant-position="normal" isolation="auto" mix-blend-mode="normal" paint-order="fill markers stroke" shape-padding="0" text-decoration-color="#fafafa" text-decoration-line="none" text-decoration-style="solid" text-indent="0" text-orientation="mixed" text-transform="none" white-space="normal" fill="#ffffff" data-fill-palette-color="quaternary"></path><path d="M11.988 8.908l-1.668 2.565 0.336 0.217 1.668-2.563z" color="#FAFAFA" color-rendering="auto" dominant-baseline="auto" fill-rule="evenodd" image-rendering="auto" solid-color="#FAFAFA" font-feature-settings="normal" font-variant-alternates="normal" font-variant-caps="normal" font-variant-ligatures="normal" font-variant-numeric="normal" font-variant-position="normal" isolation="auto" mix-blend-mode="normal" shape-padding="0" text-decoration-color="#fafafa" text-decoration-line="none" text-decoration-style="solid" text-indent="0" text-orientation="mixed" text-transform="none" white-space="normal" fill="#ffffff" data-fill-palette-color="quaternary"></path><path d="M12.467 10.39c-0.155 0.211-0.399 0.347-0.664 0.371-0.265 0.024-0.522-0.067-0.703-0.245l-0.298 0.273c0.266 0.262 0.647 0.395 1.033 0.36 0.387-0.035 0.741-0.233 0.967-0.539z" color="#FAFAFA" color-rendering="auto" dominant-baseline="auto" image-rendering="auto" solid-color="#FAFAFA" font-feature-settings="normal" font-variant-alternates="normal" font-variant-caps="normal" font-variant-ligatures="normal" font-variant-numeric="normal" font-variant-position="normal" isolation="auto" mix-blend-mode="normal" paint-order="fill markers stroke" shape-padding="0" text-decoration-color="#fafafa" text-decoration-line="none" text-decoration-style="solid" text-indent="0" text-orientation="mixed" text-transform="none" white-space="normal" fill="#ffffff" data-fill-palette-color="quaternary"></path></g></svg></g></svg></g><g></g></svg></g></svg></g></svg></g></svg></g><defs></defs></svg><rect width="342.85155851775386" height="342.85155851775386" fill="none" stroke="none" visibility="hidden"></rect></g></svg></g></svg>